<?xml version="1.0" encoding="UTF-8"?>
<svg version="1.1" xmlns="http://www.w3.org/2000/svg" width="512" height="512">
<path d="M0 0 C0.86701538 -0.0065712 1.73403076 -0.0131424 2.62731934 -0.01991272 C5.49926846 -0.03963791 8.3711653 -0.0513069 11.24316406 -0.0612793 C12.71532757 -0.06739259 12.71532757 -0.06739259 14.21723175 -0.07362938 C19.41239715 -0.09448728 24.60753616 -0.10878995 29.80273438 -0.11816406 C35.16390278 -0.12922492 40.52465573 -0.16362204 45.88567734 -0.20333576 C50.01215375 -0.22950379 54.13853122 -0.2378561 58.26508331 -0.24144554 C60.24099787 -0.24631138 62.216908 -0.2579253 64.19274139 -0.27648354 C66.96216071 -0.3008777 69.73050574 -0.2999094 72.5 -0.29296875 C73.7175296 -0.31218384 73.7175296 -0.31218384 74.95965576 -0.33178711 C81.40402705 -0.2731052 85.58359307 1.52474514 90.43457031 5.9230957 C95.83077095 12.50494043 97.35453611 17.62555956 96.50878906 26.17700195 C94.42215706 33.01651797 90.69735194 38.44469615 84.39550781 41.8684082 C79.99025707 43.63539418 75.7537784 43.51165512 71.07128906 43.36450195 C69.83088867 43.34419922 69.83088867 43.34419922 68.56542969 43.32348633 C66.54626266 43.28847187 64.52743589 43.23467758 62.50878906 43.17700195 C63.00378906 47.63200195 63.00378906 47.63200195 63.50878906 52.17700195 C64.92546875 52.39614258 66.34214844 52.6152832 67.80175781 52.84106445 C94.04272427 57.05462692 119.05009634 64.57707221 142.50878906 77.17700195 C143.15912109 77.51957031 143.80945313 77.86213867 144.47949219 78.21508789 C159.37562188 86.08875644 177.01186011 96.01690524 188.04785156 108.9855957 C188.52996094 109.37875977 189.01207031 109.77192383 189.50878906 110.17700195 C192.94114555 109.75968602 194.59077408 108.45385069 196.96191406 106.0168457 C197.89003906 105.07421875 197.89003906 105.07421875 198.83691406 104.11254883 C199.47113281 103.45319336 200.10535156 102.79383789 200.75878906 102.11450195 C201.40847656 101.4512793 202.05816406 100.78805664 202.72753906 100.10473633 C204.32825666 98.46870878 205.92155099 96.82609283 207.50878906 95.17700195 C206.56162839 94.05416889 205.61191312 92.93349043 204.66113281 91.8137207 C204.13253662 91.18941162 203.60394043 90.56510254 203.05932617 89.921875 C201.43574343 88.02881496 201.43574343 88.02881496 199.07128906 85.98950195 C198.55566406 85.39137695 198.04003906 84.79325195 197.50878906 84.17700195 C197.88164863 80.72718 199.29034635 79.00963786 201.67993164 76.5859375 C202.68151054 75.5604908 202.68151054 75.5604908 203.70332336 74.514328 C204.42932236 73.78812759 205.15532135 73.06192719 205.90332031 72.3137207 C206.6470842 71.56234329 207.39084808 70.81096588 208.15715027 70.03681946 C209.7311729 68.45199474 211.30918862 66.8711274 212.89086914 65.29394531 C215.31556563 62.87022308 217.71815505 60.4259652 220.12011719 57.97973633 C221.65071606 56.44393226 223.18257527 54.90938302 224.71582031 53.3762207 C225.79570976 52.27173836 225.79570976 52.27173836 226.89741516 51.14494324 C227.57459091 50.47707291 228.25176666 49.80920258 228.94946289 49.12109375 C229.54157059 48.52693161 230.13367828 47.93276947 230.74372864 47.32060242 C232.50878906 46.17700195 232.50878906 46.17700195 234.50680542 46.2947998 C236.86352135 47.33331971 238.2655732 48.53968284 240.09985352 50.34814453 C241.12530022 51.34972343 241.12530022 51.34972343 242.17146301 52.37153625 C243.26076363 53.46053474 243.26076363 53.46053474 244.37207031 54.5715332 C245.49913643 55.68717903 245.49913643 55.68717903 246.64897156 56.82536316 C248.23379627 58.39938579 249.81466361 59.97740151 251.3918457 61.55908203 C253.81556793 63.98377852 256.25982582 66.38636794 258.70605469 68.78833008 C260.24185876 70.31892895 261.776408 71.85078816 263.30957031 73.3840332 C264.04589188 74.1039595 264.78221344 74.8238858 265.54084778 75.56562805 C266.20871811 76.2428038 266.87658844 76.91997955 267.56469727 77.61767578 C268.15885941 78.20978348 268.75302155 78.80189117 269.3651886 79.41194153 C270.50878906 81.17700195 270.50878906 81.17700195 270.39099121 83.17501831 C269.35247131 85.53173424 268.14610818 86.93378609 266.33764648 88.76806641 C265.66992722 89.45169754 265.00220795 90.13532867 264.31425476 90.8396759 C263.58825577 91.56587631 262.86225677 92.29207672 262.11425781 93.0402832 C261.37049393 93.79166061 260.62673004 94.54303802 259.86042786 95.31718445 C258.28640523 96.90200916 256.70838951 98.4828765 255.12670898 100.06005859 C252.70201249 102.48378082 250.29942308 104.92803871 247.89746094 107.37426758 C246.36686207 108.91007165 244.83500285 110.44462089 243.30175781 111.9777832 C242.58183151 112.71410477 241.86190521 113.45042633 241.12016296 114.20906067 C240.10439934 115.21086617 240.10439934 115.21086617 239.06811523 116.23291016 C238.47600754 116.8270723 237.88389984 117.42123444 237.27384949 118.03340149 C235.50878906 119.17700195 235.50878906 119.17700195 233.43379211 118.99015808 C230.58301782 117.78593943 228.88663677 115.83622529 226.75878906 113.61450195 C225.55996094 112.37506836 225.55996094 112.37506836 224.33691406 111.1105957 C223.73363281 110.47250977 223.13035156 109.83442383 222.50878906 109.17700195 C219.57648713 110.49821024 217.52214007 111.92338392 215.27441406 114.21606445 C214.70078125 114.79614258 214.12714844 115.3762207 213.53613281 115.97387695 C212.94960938 116.5771582 212.36308594 117.18043945 211.75878906 117.80200195 C211.15679687 118.41301758 210.55480469 119.0240332 209.93457031 119.65356445 C208.45473601 121.15688819 206.9811423 122.66635051 205.50878906 124.17700195 C207.38276356 127.48066519 209.31961433 130.19300072 211.94628906 132.92700195 C237.52338186 161.2310642 254.16720814 199.31758705 261.75878906 236.36450195 C261.90993164 237.09862305 262.06107422 237.83274414 262.21679688 238.58911133 C264.93758205 252.77650128 265.88978984 266.88549806 265.82128906 281.30200195 C265.81855484 282.50773361 265.81855484 282.50773361 265.81576538 283.73782349 C265.76513111 297.06948021 265.02409698 310.0556835 262.50878906 323.17700195 C262.33718262 324.08369629 262.16557617 324.99039062 261.98876953 325.92456055 C255.17598656 360.77995155 240.87449853 394.41408289 218.50878906 422.17700195 C217.79335938 423.08321289 217.07792969 423.98942383 216.34082031 424.9230957 C210.70016703 431.96143299 204.69144947 438.61656348 198.50878906 445.17700195 C197.81914062 445.90918945 197.12949219 446.64137695 196.41894531 447.39575195 C191.16870329 452.80704434 185.41480017 457.50205912 179.50878906 462.17700195 C178.043125 463.3680957 178.043125 463.3680957 176.54785156 464.58325195 C167.69765103 471.62774407 158.29876429 477.52625616 148.50878906 483.17700195 C147.8180127 483.57806152 147.12723633 483.97912109 146.41552734 484.39233398 C116.55928523 501.52390754 80.71860506 512.19211339 46.18066406 512.38012695 C45.31722382 512.38705063 44.45378357 512.3939743 43.56417847 512.40110779 C40.79566859 512.41828834 38.02734972 512.42469347 35.25878906 512.42700195 C33.84566437 512.42901108 33.84566437 512.42901108 32.4039917 512.43106079 C18.89076097 512.42688284 5.76304396 512.04658326 -7.49121094 509.17700195 C-8.73257813 508.93723633 -9.97394531 508.6974707 -11.25292969 508.45043945 C-16.57727951 507.30365642 -19.96669004 506.562718 -23.49121094 502.17700195 C-24.19597112 497.24368067 -24.26162492 495.33262293 -21.49121094 491.17700195 C-14.72590523 486.66679815 -4.75151127 489.91002243 2.82128906 491.11450195 C11.04104522 492.40754864 19.20914769 493.54650288 27.50878906 494.17700195 C27.48260498 493.59732666 27.4564209 493.01765137 27.42944336 492.42041016 C27.32508294 489.7770532 27.2603458 487.13412996 27.19628906 484.48950195 C27.13344727 483.12148438 27.13344727 483.12148438 27.06933594 481.72583008 C26.98493937 477.08401882 26.97524028 474.89806279 29.80957031 471.06762695 C33.35659006 468.58317318 35.26009507 468.49417613 39.50878906 469.17700195 C42.26207927 470.972626 44.03506367 472.22955117 45.50878906 475.17700195 C45.59221065 476.62548777 45.61611767 478.07771065 45.60644531 479.52856445 C45.60161133 480.80473633 45.60161133 480.80473633 45.59667969 482.10668945 C45.58411133 483.44086914 45.58411133 483.44086914 45.57128906 484.80200195 C45.56677734 485.69918945 45.56226563 486.59637695 45.55761719 487.52075195 C45.54581497 489.73956844 45.52935062 491.95825214 45.50878906 494.17700195 C74.33512853 490.77156566 101.49287312 485.4211305 127.73535156 472.4621582 C130.50878906 471.17700195 130.50878906 471.17700195 132.50878906 471.17700195 C131.55294938 469.23827053 130.59402714 467.30105865 129.63378906 465.36450195 C128.83328125 463.74608398 128.83328125 463.74608398 128.01660156 462.0949707 C126.53657767 459.09861931 126.53657767 459.09861931 124.50878906 456.17700195 C123.8431003 451.97387406 123.84723112 448.3563009 125.94628906 444.61450195 C129.8244481 442.43894932 133.18650681 442.0832307 137.50878906 443.17700195 C143.01421244 447.1202457 146.23884578 454.41401681 149.50878906 460.17700195 C162.42459705 451.49117241 174.17849854 441.83888684 185.50878906 431.17700195 C186.1675 430.56083008 186.82621094 429.9446582 187.50488281 429.30981445 C195.04598565 422.02995074 201.31554374 413.55573777 207.57128906 405.17700195 C208.06081055 404.52989258 208.55033203 403.8827832 209.0546875 403.21606445 C211.83887139 399.58846942 211.83887139 399.58846942 212.50878906 395.17700195 C211.53296875 394.65750977 210.55714844 394.13801758 209.55175781 393.6027832 C208.26623308 392.89902879 206.98109703 392.19456406 205.69628906 391.48950195 C205.05369141 391.14983398 204.41109375 390.81016602 203.74902344 390.46020508 C199.79829147 388.2699029 197.34838858 386.4877053 195.50878906 382.17700195 C195.57628949 378.32947735 195.99020003 375.98600085 198.07128906 372.73950195 C201.48290505 370.55256863 204.60636146 370.63597275 208.50878906 371.17700195 C211.35619156 372.22369697 213.89865182 373.64101662 216.50878906 375.17700195 C217.188125 375.55856445 217.86746094 375.94012695 218.56738281 376.33325195 C220.22312036 377.26606184 221.86724525 378.21943473 223.50878906 379.17700195 C237.04832138 350.72503151 244.1711171 322.47131359 247.50878906 291.17700195 C246.26742188 291.21180664 245.02605469 291.24661133 243.74707031 291.2824707 C242.1051568 291.31061779 240.46322861 291.33791696 238.82128906 291.36450195 C237.59635742 291.40220703 237.59635742 291.40220703 236.34667969 291.44067383 C231.53414791 291.49912563 228.43501634 291.27744529 224.50878906 288.17700195 C222.11592022 285.78413311 222.1882829 285.08253102 222.13378906 281.80200195 C222.10542969 281.03114258 222.07707031 280.2602832 222.04785156 279.46606445 C222.50878906 277.17700195 222.50878906 277.17700195 223.86035156 274.90356445 C228.08463288 272.14968194 232.34013754 272.75671575 237.25878906 272.92700195 C238.24234375 272.94504883 239.22589844 272.9630957 240.23925781 272.98168945 C242.66342689 273.0287607 245.08560965 273.09449453 247.50878906 273.17700195 C244.51898877 243.74441005 238.5549385 216.46197827 226.01269531 189.5715332 C224.50878906 186.17700195 224.50878906 186.17700195 224.50878906 184.17700195 C222.57005764 185.13284163 220.63284576 186.09176387 218.69628906 187.05200195 C217.61734375 187.58567383 216.53839844 188.1193457 215.42675781 188.66918945 C212.43040642 190.14921334 212.43040642 190.14921334 209.50878906 192.17700195 C205.28122466 192.84656096 201.67984346 192.90891095 198.00878906 190.61450195 C196.00745495 187.36233401 195.5756781 184.98967696 195.50878906 181.17700195 C197.68989447 175.97590443 201.49090909 174.00496261 206.19628906 171.36450195 C206.89818359 170.95780273 207.60007812 170.55110352 208.32324219 170.13208008 C210.04552758 169.13620077 211.77634305 168.15509878 213.50878906 167.17700195 C195.73152942 141.75440727 175.5860311 120.23839132 149.50878906 103.17700195 C148.97769531 104.0690332 148.44660156 104.96106445 147.89941406 105.88012695 C147.18617546 107.06260147 146.47261679 108.24488298 145.75878906 109.42700195 C145.41074219 110.01352539 145.06269531 110.60004883 144.70410156 111.2043457 C139.69195936 119.4650986 139.69195936 119.4650986 134.63378906 121.11450195 C130.63839914 121.19440975 128.74327359 120.52935434 125.50878906 118.17700195 C123.61300816 114.23377768 123.19247661 112.1852479 124.50878906 107.98950195 C125.15761386 106.70946751 125.8279982 105.44032519 126.50878906 104.17700195 C127.57315856 102.03209531 128.63553788 99.88620032 129.69628906 97.73950195 C130.63183314 95.88434763 131.56867642 94.02984531 132.50878906 92.17700195 C131.31253906 91.80575195 130.11628906 91.43450195 128.88378906 91.05200195 C124.83224097 89.70988727 120.97201278 88.09462505 117.07128906 86.36450195 C94.1268424 76.46112968 70.25202312 71.95469201 45.50878906 69.17700195 C45.5192627 69.73162109 45.52973633 70.28624023 45.54052734 70.85766602 C45.5822091 73.38073154 45.60815344 75.90372448 45.63378906 78.42700195 C45.65054688 79.29969727 45.66730469 80.17239258 45.68457031 81.0715332 C45.69101562 81.91586914 45.69746094 82.76020508 45.70410156 83.63012695 C45.7145752 84.40517578 45.72504883 85.18022461 45.73583984 85.97875977 C45.47486679 88.50542786 44.87324671 90.03989962 43.50878906 92.17700195 C40.34060151 94.28912699 38.37659655 94.5085666 34.64160156 94.7355957 C31.02090078 93.78731693 29.6926605 92.18689731 27.50878906 89.17700195 C26.90846604 85.71590313 27.0355457 82.36376131 27.19628906 78.86450195 C27.21884766 77.9331543 27.24140625 77.00180664 27.26464844 76.04223633 C27.32336828 73.75216235 27.40542049 71.4654232 27.50878906 69.17700195 C23.40391373 69.62912264 19.30004694 70.08985705 15.19628906 70.55200195 C14.04837891 70.67833008 12.90046875 70.8046582 11.71777344 70.93481445 C5.40975929 71.64960359 -0.80850468 72.51660348 -7.03515625 73.76000977 C-12.25774773 74.6467082 -17.36519171 75.34125058 -22.11621094 72.73950195 C-24.11448854 69.01543915 -24.47865581 65.30103641 -23.49121094 61.17700195 C-18.87143144 55.168058 -11.3176473 54.86010594 -4.22460938 53.85620117 C0.67859788 53.21775219 5.58978514 52.67773888 10.50878906 52.17700195 C10.50878906 49.20700195 10.50878906 46.23700195 10.50878906 43.17700195 C9.30222656 43.2234082 8.09566406 43.26981445 6.85253906 43.31762695 C5.2379807 43.35517482 3.62339528 43.39157172 2.00878906 43.42700195 C0.8215625 43.47727539 0.8215625 43.47727539 -0.38964844 43.52856445 C-7.72478875 43.64881265 -12.72474048 41.51313256 -18.30371094 36.80200195 C-23.29387484 30.81380527 -24.04961287 26.05291405 -23.83105469 18.3684082 C-23.2404591 12.82224048 -21.67263668 9.17847105 -17.54980469 5.39575195 C-11.71992092 0.84350385 -7.34310446 0.02408551 0 0 Z M-4.49121094 18.17700195 C-5.17079697 20.57419627 -5.17079697 20.57419627 -5.49121094 23.17700195 C-3.58750219 25.51717083 -3.58750219 25.51717083 -0.32666016 25.40405273 C1.0169687 25.40373585 2.36062316 25.39242376 3.70410156 25.37231445 C4.76526688 25.36806961 4.76526688 25.36806961 5.84786987 25.36373901 C8.11001416 25.35253333 10.37176421 25.32742874 12.63378906 25.30200195 C14.16633543 25.29197262 15.698888 25.28284669 17.23144531 25.2746582 C20.99083441 25.25429315 24.74936984 25.21514713 28.50878906 25.17700195 C28.50878906 33.75700195 28.50878906 42.33700195 28.50878906 51.17700195 C33.78878906 51.17700195 39.06878906 51.17700195 44.50878906 51.17700195 C44.50878906 42.59700195 44.50878906 34.01700195 44.50878906 25.17700195 C46.79558594 25.20020508 49.08238281 25.2234082 51.43847656 25.24731445 C53.64924566 25.26290455 55.86000866 25.27505292 58.07080078 25.28686523 C59.60924005 25.29693313 61.14766013 25.31058841 62.68603516 25.32788086 C64.89523039 25.35209512 67.10417301 25.36347686 69.31347656 25.37231445 C70.34793411 25.38779831 70.34793411 25.38779831 71.40328979 25.40359497 C73.10679813 25.40399674 74.80964849 25.29891221 76.50878906 25.17700195 C77.16878906 24.51700195 77.82878906 23.85700195 78.50878906 23.17700195 C78.10350005 20.39462541 78.10350005 20.39462541 76.50878906 18.17700195 C73.98337904 18.08195945 71.4854178 18.05143037 68.9597168 18.06347656 C68.16953156 18.06333054 67.37934631 18.06318451 66.56521606 18.06303406 C63.94091084 18.06373338 61.31667571 18.07152668 58.69238281 18.0793457 C56.87777241 18.08120981 55.0631615 18.08263375 53.24855042 18.08363342 C48.46288677 18.08745916 43.67725327 18.09728992 38.89160156 18.1083374 C34.01204842 18.11855033 29.13249043 18.12313079 24.25292969 18.12817383 C14.6715362 18.13891214 5.09016514 18.15598922 -4.49121094 18.17700195 Z M233.50878906 71.17700195 C229.87878906 74.80700195 226.24878906 78.43700195 222.50878906 82.17700195 C226.24174179 86.70987312 229.89365455 90.55082483 234.50878906 94.17700195 C238.13878906 90.54700195 241.76878906 86.91700195 245.50878906 83.17700195 C241.77583634 78.64413079 238.12392358 74.80317907 233.50878906 71.17700195 Z " fill="#000000" transform="translate(226.4912109375,-0.177001953125)"/>
<path d="M0 0 C3.03281494 2.64399251 3.89436922 4.20092268 4.421875 8.19140625 C3.86315718 13.23538656 1.83864317 15.85624154 -1.1875 19.8125 C-1.72705322 20.54605713 -2.26660645 21.27961426 -2.82250977 22.03540039 C-3.9631741 23.58528937 -5.11037937 25.13038314 -6.26367188 26.67089844 C-8.489421 29.65650679 -10.66166052 32.67874997 -12.83325195 35.70385742 C-14.4548325 37.96163255 -16.08368743 40.21397886 -17.71484375 42.46484375 C-20.98133353 46.97312352 -24.24121974 51.48614565 -27.5 56 C-28.58330362 57.50002146 -29.66663696 59.00002146 -30.75 60.5 C-31.28625 61.2425 -31.8225 61.985 -32.375 62.75 C-34 65 -35.625 67.25 -37.25 69.5 C-37.78616943 70.24241943 -38.32233887 70.98483887 -38.87475586 71.74975586 C-39.95878416 73.2506555 -41.04293142 74.75146922 -42.12719727 76.25219727 C-44.82587655 79.98773967 -47.52251312 83.72472254 -50.21484375 87.46484375 C-55.8990959 95.35714959 -61.61268765 103.22695841 -67.375 111.0625 C-67.93372803 111.82361084 -68.49245605 112.58472168 -69.06811523 113.36889648 C-71.91160829 117.22656451 -74.78181939 121.06393729 -77.6875 124.875 C-78.23535156 125.59558594 -78.78320312 126.31617188 -79.34765625 127.05859375 C-84.59139271 133.21967418 -91.24835821 136.08724344 -99.1875 136.8125 C-109.14661908 137.41880488 -117.4710101 134.65084767 -125 128 C-132.4273087 119.12539988 -133.99329525 110.39146196 -133 99 C-130.05166006 86.11204695 -120.32951773 79.47939162 -110.03466797 72.41113281 C-106.400799 69.89088291 -102.82938689 67.28424936 -99.25 64.6875 C-97.71370344 63.57659917 -96.17724364 62.46592404 -94.640625 61.35546875 C-93.87298828 60.80036621 -93.10535156 60.24526367 -92.31445312 59.67333984 C-88.54406981 56.94736861 -84.77196306 54.22378466 -81 51.5 C-79.49999141 50.41667856 -77.99999142 49.33334521 -76.5 48.25 C-49.5 28.75 -49.5 28.75 -47.24755859 27.12329102 C-45.75562787 26.04574948 -44.26376528 24.96811358 -42.77197266 23.89038086 C-38.8990816 21.09263417 -35.02482938 18.29680084 -31.1484375 15.50390625 C-30.34921875 14.92769531 -29.55 14.35148438 -28.7265625 13.7578125 C-27.21398684 12.66735098 -25.70099941 11.57746029 -24.1875 10.48828125 C-19.98634663 7.45845317 -15.84080227 4.37288364 -11.74853516 1.19702148 C-7.74019743 -1.54702765 -4.55972197 -1.11993171 0 0 Z M-48 50 C-48.74121094 50.58265625 -49.48242188 51.1653125 -50.24609375 51.765625 C-57.14599498 57.15104977 -64.17859401 62.30093839 -71.34521484 67.32519531 C-78.87069893 72.60124135 -86.33603869 77.95684255 -93.76269531 83.37109375 C-95.27280742 84.47055556 -96.78523825 85.56683865 -98.29980469 86.66015625 C-100.5192171 88.26427663 -102.72932788 89.88045474 -104.9375 91.5 C-105.60595947 91.98017578 -106.27441895 92.46035156 -106.96313477 92.95507812 C-110.53618797 95.59896086 -113.12298332 97.84760698 -115 102 C-115.52774616 106.74971544 -115.47536881 108.99221812 -113.4375 113.3125 C-110.46062269 116.59469806 -108.25249171 117.77470578 -104 119 C-98.5363096 118.90579844 -95.98873047 117.60683075 -92 114 C-90.41199104 111.98143931 -88.94202884 109.99082051 -87.5 107.875 C-86.62181909 106.61668098 -85.74287472 105.35889452 -84.86328125 104.1015625 C-84.40002441 103.43543945 -83.93676758 102.76931641 -83.45947266 102.08300781 C-80.90908503 98.44300995 -78.29556143 94.84878099 -75.6875 91.25 C-74.58185881 89.72147888 -73.47639192 88.19283168 -72.37109375 86.6640625 C-71.81663574 85.89739258 -71.26217773 85.13072266 -70.69091797 84.34082031 C-68.99054058 81.98690487 -67.29361754 79.63053624 -65.59765625 77.2734375 C-59.48451344 68.78197754 -53.32499854 60.33526939 -47 52 C-47.495 51.01 -47.495 51.01 -48 50 Z " fill="#000000" transform="translate(370,188)"/>
<path d="M0 0 C1.03145327 -0.01064158 1.03145327 -0.01064158 2.08374399 -0.02149814 C4.37569722 -0.03902621 6.66594273 -0.0210025 8.95787048 -0.00291443 C10.6058021 -0.00805525 12.25372822 -0.01533775 13.90164185 -0.02459717 C18.36862945 -0.04309744 22.8350195 -0.03018204 27.30198216 -0.01050687 C31.97882475 0.00588961 36.65562978 -0.00293453 41.33248901 -0.00802612 C49.18492672 -0.01254552 57.0371261 0.00331428 64.88951111 0.03126526 C73.96690479 0.06332764 83.04386891 0.06329662 92.12129313 0.04605049 C100.85653573 0.03018612 109.5916209 0.03691765 118.32685661 0.0539875 C122.04328542 0.06085858 125.75958806 0.05982501 129.47601509 0.05244255 C133.85185687 0.0447805 138.2272098 0.05690295 142.60296822 0.08429146 C144.20857797 0.09117683 145.81423337 0.09127159 147.41984177 0.08407593 C149.61222677 0.07538282 151.80310249 0.09133192 153.99536133 0.11352539 C155.22184922 0.11633231 156.44833712 0.11913923 157.71199131 0.12203121 C161.54254187 0.72375203 163.19611583 1.93640577 165.93418884 4.62818909 C167.32412964 7.40807068 167.11907089 9.54682169 166.93418884 12.62818909 C165.72712005 15.97084113 165.01362035 16.57523475 161.93418884 18.62818909 C158.92405891 18.8882513 158.92405891 18.8882513 155.1532135 18.90234375 C154.11335448 18.91019877 154.11335448 18.91019877 153.05248821 18.91821247 C150.72409736 18.93324243 148.39592569 18.93391827 146.06748962 18.93458557 C144.40030037 18.94220504 142.73311464 18.95063217 141.06593323 18.95980835 C136.53285513 18.98178089 131.99984449 18.99055591 127.46671915 18.99563479 C124.63557411 18.99927503 121.80444684 19.00551333 118.97330856 19.01263618 C109.09909537 19.03713998 99.22493479 19.05018465 89.35069275 19.0537262 C80.1421331 19.05736249 70.93390654 19.08726217 61.72544873 19.12913078 C53.82302839 19.16380337 45.9207186 19.17927411 38.01822269 19.17997223 C33.29682598 19.18076607 28.57576845 19.18955341 23.85445023 19.21796989 C19.41380431 19.24409884 14.97378003 19.24638497 10.5330925 19.23031425 C8.90326841 19.22849563 7.273409 19.23522776 5.6436615 19.25113297 C3.41807917 19.27152894 1.19468517 19.26108352 -1.03086853 19.24291992 C-2.27600157 19.24493125 -3.52113461 19.24694258 -4.80399895 19.24901485 C-8.9577242 18.4584299 -10.43764585 16.8640106 -13.06581116 13.62818909 C-13.76502991 11.56568909 -13.76502991 11.56568909 -13.75331116 9.62818909 C-13.77780334 8.98881409 -13.80229553 8.34943909 -13.82752991 7.69068909 C-11.52516242 1.45658636 -6.00502304 0.00286975 0 0 Z " fill="#000000" transform="translate(28.065811157226563,297.37181091308594)"/>
<path d="M0 0 C1.09066772 -0.00571014 2.18133545 -0.01142029 3.30505371 -0.01730347 C4.49684235 -0.01842133 5.68863098 -0.01953918 6.91653442 -0.02069092 C8.17544495 -0.02565582 9.43435547 -0.03062073 10.73141479 -0.03573608 C14.18188346 -0.04883485 17.63233269 -0.05529991 21.08282232 -0.05974674 C23.23974842 -0.06268107 25.39666925 -0.06678653 27.55359268 -0.07125092 C34.30574546 -0.08491816 41.05788615 -0.09458904 47.8100518 -0.09845281 C55.59799784 -0.10293416 63.38576842 -0.12048874 71.17366111 -0.1494534 C77.19841777 -0.17108119 83.2231251 -0.18115764 89.24792016 -0.18249393 C92.84417035 -0.18354102 96.44025544 -0.18942845 100.03646469 -0.20731354 C104.04867937 -0.22688036 108.06052729 -0.22250092 112.07278442 -0.21600342 C113.85439468 -0.22982559 113.85439468 -0.22982559 115.67199707 -0.243927 C125.94048683 -0.1917639 125.94048683 -0.1917639 130.62405396 3.14044189 C133.1243705 6.89091671 133.1600895 8.69900455 132.62405396 13.14044189 C130.96743244 15.73278596 130.24700468 16.71472499 127.62405396 18.14044189 C123.3066023 18.90124271 119.02571901 18.82295054 114.65139771 18.78741455 C113.33221344 18.79617615 112.01302917 18.80493774 110.65386963 18.81396484 C107.04214057 18.83672942 103.43112684 18.82793433 99.81938553 18.81206942 C96.03672634 18.79939535 92.2541277 18.81115469 88.47146606 18.81900024 C82.11954775 18.82809248 75.76792028 18.81612032 69.41604614 18.79229736 C62.07619513 18.76508657 54.73703858 18.77390106 47.3972044 18.80142939 C41.09128476 18.82413183 34.78557397 18.8273151 28.47962666 18.81423604 C24.71514315 18.80644764 20.95098588 18.80538273 17.18652344 18.82191849 C12.98950183 18.8390671 8.79367412 18.81528943 4.59671021 18.78741455 C2.72790695 18.80259628 2.72790695 18.80259628 0.8213501 18.81808472 C-8.54643974 18.70262949 -8.54643974 18.70262949 -11.65158081 15.8187561 C-13.93552661 12.27129158 -14.04236943 10.28707628 -13.37594604 6.14044189 C-10.58747694 1.55938551 -10.58747694 1.55938551 -7.57131767 0.51640701 C-5.01254228 0.07820772 -2.59716411 0.00815647 0 0 Z " fill="#000000" transform="translate(62.375946044921875,237.85955810546875)"/>
<path d="M0 0 C0.98417404 -0.00563965 1.96834808 -0.0112793 2.98234558 -0.01708984 C4.05571671 -0.01304138 5.12908783 -0.00899292 6.23498535 -0.00482178 C7.37031204 -0.00832642 8.50563873 -0.01183105 9.67536926 -0.01544189 C13.43293347 -0.02425343 17.19030981 -0.01841196 20.94787598 -0.01165771 C23.55574581 -0.01300453 26.1636154 -0.01494519 28.77148438 -0.01745605 C34.23899374 -0.02109347 39.70644904 -0.01630251 45.1739502 -0.0067749 C51.4928443 0.00410925 57.81160934 0.00058351 64.13050032 -0.01042771 C70.21204304 -0.0206007 76.2935286 -0.01951957 82.37507629 -0.01366425 C84.96189899 -0.0123283 87.54872496 -0.01397353 90.13554382 -0.01862335 C93.74820736 -0.02369173 97.36062166 -0.01597365 100.9732666 -0.00482178 C102.04663773 -0.00887024 103.12000885 -0.0129187 104.22590637 -0.01708984 C105.70216743 -0.00863037 105.70216743 -0.00863037 107.20825195 0 C108.06216774 0.00075405 108.91608353 0.0015081 109.79587555 0.002285 C112.33580606 0.27922874 113.93829719 0.91753352 116.10412598 2.25396729 C118.40622088 5.47690014 118.57923252 8.37393053 118.10412598 12.25396729 C116.30418823 14.9538739 115.02035298 16.79585378 112.10412598 18.25396729 C110.5570867 18.35479722 109.00579236 18.39338466 107.45549011 18.40113831 C106.47551056 18.40829361 105.49553101 18.41544891 104.4858551 18.42282104 C103.40686447 18.42550995 102.32787384 18.42819885 101.21618652 18.43096924 C100.08275818 18.43754044 98.94932983 18.44411163 97.78155518 18.45088196 C94.01798442 18.47064799 90.2544536 18.48228434 86.49084473 18.49224854 C85.20810984 18.49632406 83.92537495 18.50039959 82.6037693 18.50459862 C76.5163627 18.52331839 70.4289762 18.53788162 64.34154671 18.54621059 C57.3153217 18.55598279 50.28941174 18.58230127 43.26329774 18.62271148 C37.17749387 18.65651197 31.09182247 18.66835573 25.00592995 18.67241478 C22.41712112 18.67729531 19.82831602 18.68895067 17.23956871 18.70745277 C13.61953833 18.73171921 10.00033531 18.73090166 6.38024902 18.72393799 C5.30733109 18.73674805 4.23441315 18.74955811 3.12898254 18.76275635 C-4.14062624 18.7116871 -4.14062624 18.7116871 -8.03813171 16.34959412 C-11.07202874 12.92720556 -11.16746067 10.78041146 -10.89587402 6.25396729 C-10.03115482 3.65980969 -9.45493442 2.59893785 -7.12374115 1.16046524 C-4.58097394 0.12583743 -2.74033767 0.00241986 0 0 Z " fill="#000000" transform="translate(76.8958740234375,357.74603271484375)"/>
<path d="M0 0 C0.90138702 -0.00554901 1.80277405 -0.01109802 2.73147583 -0.01681519 C5.70491024 -0.02860656 8.67681914 -0.00434322 11.65014648 0.02148438 C13.71850007 0.02319553 15.78685582 0.02312975 17.85520935 0.0213623 C22.18705023 0.02301521 26.51837338 0.04170965 30.85009766 0.07324219 C36.40431679 0.11294427 41.9578586 0.11728435 47.51219273 0.10977936 C51.78185742 0.10671106 56.05136965 0.11882484 60.32099724 0.13591003 C62.36913026 0.14294368 64.41728057 0.14606413 66.46542549 0.1452179 C69.32622694 0.14701419 72.18621421 0.16838102 75.046875 0.1953125 C75.89425735 0.1923819 76.74163971 0.18945129 77.61470032 0.18643188 C80.99333548 0.23554477 83.48306712 0.3507129 86.46885681 2.0111084 C88.86696204 4.59309759 88.88644311 6.98136085 89.13061523 10.38867188 C88.86760662 13.79582897 87.45864855 15.39309365 84.95874023 17.61523438 C81.09651044 18.90264431 77.44495136 18.76271041 73.41992188 18.76049805 C72.54808762 18.76385666 71.67625336 18.76721527 70.77799988 18.77067566 C67.89161765 18.7801865 65.00529341 18.78212878 62.11889648 18.78320312 C60.11494421 18.78641541 58.11099218 18.78977946 56.10704041 18.79328918 C51.90468807 18.79928064 47.70235631 18.80112905 43.5 18.80053711 C38.11176499 18.80043544 32.7236616 18.81409267 27.3354578 18.83130932 C23.19623711 18.84242001 19.05704834 18.84445661 14.91781425 18.84392738 C12.93107079 18.84510871 10.94432654 18.84953903 8.95759773 18.85725975 C6.18062197 18.86704161 3.40393337 18.86418881 0.62695312 18.8581543 C-0.1955191 18.8637738 -1.01799133 18.86939331 -1.86538696 18.87518311 C-9.04276432 18.83548907 -9.04276432 18.83548907 -12.04125977 16.61523438 C-14.1533848 13.44704682 -14.37282441 11.48304186 -14.59985352 7.74804688 C-12.62427701 0.20493657 -6.50581961 -0.10207304 0 0 Z " fill="#000000" transform="translate(106.041259765625,178.384765625)"/>
<path d="M0 0 C0.65725571 -0.00511093 1.31451141 -0.01022186 1.99168396 -0.01548767 C4.16390087 -0.02938535 6.33580056 -0.02842681 8.50805664 -0.02612305 C10.01876442 -0.03000995 11.52947112 -0.03434461 13.04017639 -0.03910828 C16.20683331 -0.04657089 19.37337875 -0.04627899 22.54003906 -0.04101562 C26.59664568 -0.03522149 30.65279564 -0.05215003 34.70932674 -0.0753603 C37.82945928 -0.09009762 40.94948185 -0.09096935 44.06964302 -0.08785057 C45.56515978 -0.08836381 47.06068269 -0.09360204 48.5561657 -0.10366249 C50.64842201 -0.11600981 52.739789 -0.10924651 54.83203125 -0.09765625 C56.02211288 -0.09828568 57.21219452 -0.0989151 58.43833923 -0.0995636 C61.75298787 0.30814891 63.12449 0.95343342 65.48071289 3.2746582 C66.5523036 6.25501985 66.72386399 9.12474627 66.48071289 12.2746582 C64.41732076 15.81190186 63.36812724 16.97885342 59.48071289 18.2746582 C57.44265576 18.38372534 55.40124504 18.43359588 53.36035156 18.45166016 C51.46774849 18.47091301 51.46774849 18.47091301 49.53691101 18.49055481 C48.15750522 18.49872271 46.77809498 18.50616634 45.39868164 18.51293945 C44.70283777 18.51701498 44.0069939 18.52109051 43.29006386 18.52528954 C39.6067904 18.54613148 35.923554 18.56044114 32.24023438 18.56982422 C28.4438102 18.58088364 24.64797296 18.61528258 20.8517561 18.65499592 C17.92542969 18.6811908 14.99924255 18.68951855 12.07280922 18.6931057 C10.67381133 18.69796447 9.27481938 18.70955835 7.87593651 18.72814369 C5.91385488 18.75259092 3.95148654 18.74914485 1.98925781 18.74462891 C0.31738655 18.75342827 0.31738655 18.75342827 -1.38825989 18.7624054 C-5.27111694 18.15753917 -7.46110815 16.69498886 -10.51928711 14.2746582 C-11.99506192 10.90145864 -11.87979605 7.41626985 -10.76928711 3.8996582 C-7.68582215 -0.10884625 -4.71630405 0.01827135 0 0 Z " fill="#000000" transform="translate(128.519287109375,417.725341796875)"/>
<path d="M0 0 C0.96465179 -0.0127597 1.92930359 -0.02551941 2.92318726 -0.03866577 C3.96383331 -0.04089142 5.00447937 -0.04311707 6.07666016 -0.04541016 C7.68391464 -0.05539536 7.68391464 -0.05539536 9.32363892 -0.06558228 C11.5915556 -0.07571252 13.85950212 -0.08039918 16.12744141 -0.08007812 C19.59539011 -0.08444704 23.06206206 -0.12075241 26.52978516 -0.15869141 C28.7329058 -0.16456031 30.9360325 -0.16852921 33.13916016 -0.17041016 C34.17575775 -0.18478119 35.21235535 -0.19915222 36.28036499 -0.21395874 C43.48606227 -0.16829393 43.48606227 -0.16829393 47.37207031 2.19433594 C49.61130427 4.70623335 50.18055888 5.74905337 50.55322266 9.10302734 C50.16907908 13.02129184 48.94815949 14.50346001 46.24072266 17.29052734 C43.83427803 18.49374966 42.28313048 18.43643162 39.5949707 18.4675293 C38.63024338 18.48036453 37.66551605 18.49319977 36.67155457 18.50642395 C35.62574722 18.51381088 34.57993988 18.52119781 33.50244141 18.52880859 C32.42952347 18.53688034 31.35660553 18.54495209 30.25117493 18.55326843 C27.97728088 18.56711595 25.70336599 18.5778351 23.42944336 18.58569336 C19.95272404 18.60290604 16.47695546 18.64678722 13.00048828 18.69091797 C10.79281299 18.70104469 8.58512961 18.70956086 6.37744141 18.71630859 C5.33770676 18.73381668 4.29797211 18.75132477 3.22673035 18.7693634 C-1.22650999 18.75598989 -3.98217809 18.73983421 -7.89282227 16.47875977 C-10.49974373 13.42240435 -10.75927734 11.27205223 -10.75927734 7.29052734 C-8.42732554 2.04363579 -5.69985544 0.05119772 0 0 Z " fill="#000000" transform="translate(144.75927734375,118.70947265625)"/>
</svg>
